<svg xmlns="http://www.w3.org/2000/svg" width="20" height="25" viewBox="0 0 16 16"><path style="line-height:normal;text-indent:0;text-align:start;text-decoration-line:none;text-decoration-style:solid;text-decoration-color:#000;text-transform:none;block-progression:tb;white-space:normal;isolation:auto;mix-blend-mode:normal;solid-color:#000;solid-opacity:1" d="M 4.015625 4 C 1.8082696 4 0.015625 5.7927 0.015625 8 C 0.015625 10.2074 1.8082696 12 4.015625 12 L 11.984375 12 C 14.191731 12 15.984375 10.2074 15.984375 8 C 15.984375 5.7927 14.191731 4 11.984375 4 L 4.015625 4 z M 4.015625 5 L 11.984375 5 C 13.655029 5 14.984375 6.3294 14.984375 8 C 14.984375 9.6707 13.655029 11 11.984375 11 L 4.015625 11 C 2.344971 11 1.015625 9.6707 1.015625 8 C 1.015625 6.3294 2.344971 5 4.015625 5 z M 11.984375 6 C 10.885728 6 9.984375 6.9014 9.984375 8 C 9.984375 9.0987 10.885728 10 11.984375 10 C 13.083022 10 13.984375 9.0987 13.984375 8 C 13.984375 6.9014 13.083022 6 11.984375 6 z M 11.984375 7 C 12.542582 7 12.984375 7.4418 12.984375 8 C 12.984375 8.5582 12.542582 9 11.984375 9 C 11.426168 9 10.984375 8.5582 10.984375 8 C 10.984375 7.4418 11.426168 7 11.984375 7 z " color="#000" enable-background="accumulate" font-family="sans-serif" font-weight="400" overflow="visible"/></svg>