<svg xmlns="http://www.w3.org/2000/svg" width="30px" height="30px" enable-background="new 0 0 100 100" viewBox="0 0 100 100"><path d="M77.41,39.7L51.59,5.77c-0.75-0.99-2.42-0.99-3.18,0L22.6,39.7c-10.38,13.64-9.07,33.08,3.05,45.2
		C32.16,91.4,40.8,94.98,50,94.98S67.85,91.4,74.35,84.9C86.48,72.77,87.79,53.34,77.41,39.7z M71.52,82.07
		c-5.74,5.75-13.39,8.91-21.52,8.91s-15.77-3.16-21.52-8.91c-10.71-10.72-11.87-27.89-2.7-39.95L50,10.29l24.22,31.83
		C83.4,54.18,82.24,71.35,71.52,82.07z"/><path d="M72,51.98c0-3.3-2.69-6-6-6c-1.31,0-2.53,0.44-3.52,1.16l-6.69-4.6c0.13-0.5,0.21-1.02,0.21-1.56c0-3.3-2.69-6-6-6
		s-6,2.7-6,6c0,0.54,0.08,1.06,0.21,1.56l-6.69,4.6c-0.99-0.72-2.2-1.16-3.52-1.16c-3.31,0-6,2.7-6,6c0,2.61,1.68,4.83,4,5.65v4.7
		c-2.32,0.83-4,3.05-4,5.65c0,3.31,2.69,6,6,6c1.32,0,2.53-0.43,3.52-1.15l6.69,4.6c-0.13,0.5-0.21,1.02-0.21,1.55
		c0,3.31,2.69,6,6,6s6-2.69,6-6c0-0.53-0.08-1.05-0.21-1.55l6.69-4.6c0.99,0.72,2.21,1.15,3.52,1.15c3.31,0,6-2.69,6-6
		c0-2.6-1.67-4.82-4-5.65v-4.7C70.33,56.81,72,54.59,72,51.98z M50,38.98c1.11,0,2,0.9,2,2c0,1.11-0.89,2-2,2c-1.1,0-2-0.89-2-2
		C48,39.88,48.9,38.98,50,38.98z M34,49.98c1.11,0,2,0.9,2,2c0,1.11-0.89,2-2,2c-1.1,0-2-0.89-2-2C32,50.88,32.9,49.98,34,49.98z
		 M34,69.98c-1.1,0-2-0.89-2-2c0-1.1,0.9-2,2-2c1.11,0,2,0.9,2,2C36,69.09,35.11,69.98,34,69.98z M50,80.98c-1.1,0-2-0.89-2-2
		c0-1.1,0.9-2,2-2c1.11,0,2,0.9,2,2C52,80.09,51.11,80.98,50,80.98z M60,67.98c0,0.54,0.08,1.06,0.21,1.56l-6.69,4.6
		c-0.99-0.72-2.2-1.16-3.52-1.16c-1.31,0-2.53,0.44-3.52,1.16l-6.69-4.6c0.14-0.5,0.21-1.02,0.21-1.56c0-2.6-1.67-4.82-4-5.65v-4.7
		c2.33-0.82,4-3.04,4-5.65c0-0.53-0.07-1.05-0.21-1.55l6.69-4.6c0.99,0.72,2.21,1.15,3.52,1.15c1.32,0,2.53-0.43,3.52-1.15l6.69,4.6
		c-0.13,0.5-0.21,1.02-0.21,1.55c0,2.61,1.68,4.83,4,5.65v4.7C61.68,63.16,60,65.38,60,67.98z M66,69.98c-1.1,0-2-0.89-2-2
		c0-1.1,0.9-2,2-2c1.11,0,2,0.9,2,2C68,69.09,67.11,69.98,66,69.98z M66,53.98c-1.1,0-2-0.89-2-2c0-1.1,0.9-2,2-2c1.11,0,2,0.9,2,2
		C68,53.09,67.11,53.98,66,53.98z"/></svg>